
<svg width="346" height="328" viewBox="0 0 346 328" fill="none" xmlns="http://www.w3.org/2000/svg">
<g clip-path="url(#clip0_19_8)">
<rect x="353" y="-17" width="361" height="361" rx="22" transform="rotate(90 353 -17)" fill="#151932"/>
<circle cx="240.598" cy="231.596" r="37.2645" fill="#D9D9D9"/>
<path d="M122.078 179.675L65.7347 179.675C65.7347 238.89 114.842 286.892 175.419 286.892L175.419 231.817C145.959 231.817 122.078 208.472 122.078 179.675Z" fill="#DFE5E5"/>
<path d="M181.996 109.171L181.996 41.7843C109.386 41.7844 50.5235 100.519 50.5235 172.974L118.059 172.974C118.059 137.738 146.684 109.171 181.996 109.171Z" fill="#DFE5E5"/>
<path d="M188.85 115.276C217.708 115.276 241.102 139.109 241.102 168.507L296.296 168.507C296.296 108.058 248.19 59.0557 188.85 59.0557L188.85 115.276Z" fill="#3ADFAA"/>
</g>
<defs>
<clipPath id="clip0_19_8">
<rect width="346" height="328" fill="white"/>
</clipPath>
</defs>
</svg>
