<svg xmlns="http://www.w3.org/2000/svg" width="333" height="58" viewBox="0 0 333 58" fill="none">
<g clip-path="url(#clip0_53_32)">
<path d="M58.5883 56.7C54.7383 56.7 51.3938 55.9611 48.5549 54.4833C45.716 52.9667 43.5188 50.8472 41.9633 48.125C40.4466 45.3639 39.6883 42.1167 39.6883 38.3833C39.6883 34.65 40.4272 31.4417 41.9049 28.7583C43.4216 26.0361 45.5605 23.9556 48.3216 22.5167C51.1216 21.0389 54.4077 20.3 58.1799 20.3C61.9133 20.3 65.1216 21.0194 67.8049 22.4583C70.4883 23.8583 72.5299 25.8806 73.9299 28.525C75.3688 31.1694 76.0883 34.3389 76.0883 38.0333V41.475H50.0133C50.441 43.7306 51.3744 45.4417 52.8133 46.6083C54.2522 47.7361 56.1577 48.3 58.5299 48.3C60.4355 48.3 61.9133 48.0083 62.9633 47.425C64.0522 46.8028 64.8299 45.8306 65.2966 44.5083H76.0299C75.291 48.3194 73.3855 51.3139 70.3133 53.4917C67.241 55.6306 63.3327 56.7 58.5883 56.7ZM50.1883 34.475H65.8216C65.4716 32.5306 64.6549 31.0917 63.3716 30.1583C62.1272 29.1861 60.416 28.7 58.2383 28.7C56.0994 28.7 54.3494 29.1861 52.9883 30.1583C51.6272 31.1306 50.6938 32.5694 50.1883 34.475ZM84.12 56V31.5H78.87V21H89.6034V26.8333H92.0534C93.4534 24.8111 95.1645 23.2361 97.1867 22.1083C99.2478 20.9417 101.873 20.3583 105.062 20.3583C110.039 20.3583 113.851 21.7 116.495 24.3833C119.178 27.0667 120.52 30.6639 120.52 35.175V56H109.787V37.275C109.787 34.8639 109.145 33.0361 107.862 31.7917C106.617 30.5472 104.77 29.925 102.32 29.925C99.87 29.925 98.0034 30.5472 96.72 31.7917C95.4756 33.0361 94.8534 34.8639 94.8534 37.275V56H84.12ZM139.236 56C136.514 56 134.394 55.3194 132.878 53.9583C131.4 52.5583 130.661 50.4389 130.661 47.6V29.4H124.828V21H130.778V10.5H141.278V21H148.978V29.4H141.394V47.6H149.794V56H139.236ZM154.865 56V21H165.598V56H154.865ZM160.231 18.025C158.637 18.025 157.276 17.4611 156.148 16.3333C155.02 15.2056 154.456 13.8444 154.456 12.25C154.456 10.6556 155.02 9.29444 156.148 8.16667C157.276 7.03889 158.637 6.475 160.231 6.475C161.826 6.475 163.187 7.03889 164.315 8.16667C165.442 9.29444 166.006 10.6556 166.006 12.25C166.006 13.8444 165.442 15.2056 164.315 16.3333C163.187 17.4611 161.826 18.025 160.231 18.025ZM175.722 56V31.5H170.472V21H181.205V26.8333H183.655C185.055 24.8111 186.766 23.2361 188.788 22.1083C190.849 20.9417 193.474 20.3583 196.663 20.3583C201.641 20.3583 205.452 21.7 208.097 24.3833C210.78 27.0667 212.122 30.6639 212.122 35.175V56H201.388V37.275C201.388 34.8639 200.747 33.0361 199.463 31.7917C198.219 30.5472 196.372 29.925 193.922 29.925C191.472 29.925 189.605 30.5472 188.322 31.7917C187.077 33.0361 186.455 34.8639 186.455 37.275V56H175.722ZM235.912 56.7C232.062 56.7 228.718 55.9611 225.879 54.4833C223.04 52.9667 220.843 50.8472 219.287 48.125C217.771 45.3639 217.012 42.1167 217.012 38.3833C217.012 34.65 217.751 31.4417 219.229 28.7583C220.746 26.0361 222.885 23.9556 225.646 22.5167C228.446 21.0389 231.732 20.3 235.504 20.3C239.237 20.3 242.446 21.0194 245.129 22.4583C247.812 23.8583 249.854 25.8806 251.254 28.525C252.693 31.1694 253.412 34.3389 253.412 38.0333V41.475H227.337C227.765 43.7306 228.699 45.4417 230.137 46.6083C231.576 47.7361 233.482 48.3 235.854 48.3C237.76 48.3 239.237 48.0083 240.287 47.425C241.376 46.8028 242.154 45.8306 242.621 44.5083H253.354C252.615 48.3194 250.71 51.3139 247.637 53.4917C244.565 55.6306 240.657 56.7 235.912 56.7ZM227.512 34.475H243.146C242.796 32.5306 241.979 31.0917 240.696 30.1583C239.451 29.1861 237.74 28.7 235.562 28.7C233.424 28.7 231.674 29.1861 230.312 30.1583C228.951 31.1306 228.018 32.5694 227.512 34.475ZM258.703 56V7H269.436V56H258.703ZM288.368 56.6417C284.168 56.6417 280.882 55.65 278.509 53.6667C276.176 51.6444 275.009 48.9611 275.009 45.6167C275.009 42.1556 276.234 39.4917 278.684 37.625C281.173 35.7194 284.712 34.7667 289.301 34.7667H298.693V33.4833C298.693 30.2944 296.671 28.7 292.626 28.7C289.048 28.7 286.871 29.9056 286.093 32.3167H275.476C276.293 28.35 278.14 25.3556 281.018 23.3333C283.896 21.3111 287.746 20.3 292.568 20.3C297.896 20.3 301.959 21.4861 304.759 23.8583C307.559 26.1917 308.959 29.6139 308.959 34.125V45.5H313.976V56H303.243V50.1667H300.793C299.587 52.2667 297.993 53.8806 296.009 55.0083C294.026 56.0972 291.479 56.6417 288.368 56.6417ZM290.001 48.5917C291.712 48.5917 293.209 48.3 294.493 47.7167C295.815 47.1333 296.846 46.3361 297.584 45.325C298.323 44.3139 298.693 43.1861 298.693 41.9417V41.7667H289.768C286.773 41.7667 285.276 42.875 285.276 45.0917C285.276 46.2194 285.684 47.0944 286.501 47.7167C287.357 48.3 288.523 48.5917 290.001 48.5917Z" fill="#151932"/>
<path d="M168.65 10.6709C168.65 5.72308 164.745 1.71159 159.929 1.71094L159.48 1.72266C154.872 1.96281 151.209 5.87689 151.208 10.6699L151.207 10.6699C151.207 15.4633 154.872 19.378 159.48 19.6182L159.929 19.6299C164.745 19.6292 168.648 15.6182 168.649 10.6709L168.65 10.6709Z" fill="#3ADFAA"/>
<path d="M18.5411 45.063L11.5564 52.2385C19.0661 59.9531 31.2414 59.953 38.751 52.2384L31.7664 45.0631C28.1143 48.8149 22.1932 48.8148 18.5411 45.063Z" fill="#151932"/>
<path d="M17.1097 30.9722L9.60689 23.2647C1.53981 31.552 1.53954 44.9882 9.60659 53.2754L17.1099 45.5673C13.1867 41.537 13.1864 35.0026 17.1097 30.9722Z" fill="#151932"/>
<path d="M18.541 31.4767C22.193 27.725 28.1142 27.7252 31.7663 31.477L38.751 24.3016C31.2414 16.587 19.0662 16.5873 11.5568 24.3018L18.541 31.4767Z" fill="#3ADFAA"/>
</g>
<defs>
<clipPath id="clip0_53_32">
<rect width="333" height="58" fill="white"/>
</clipPath>
</defs>
</svg>