
<svg width="419" height="177" viewBox="0 0 419 177" fill="none" xmlns="http://www.w3.org/2000/svg">
<g clip-path="url(#clip0_70_5)">
<rect x="417" y="11" width="155" height="415" rx="77.5" transform="rotate(90 417 11)" fill="#151932"/>
<path d="M190.5 119V54.6H223.7C228.967 54.6 233.3 55.6667 236.7 57.8C240.167 59.8667 242.733 62.7 244.4 66.3C246.067 69.9 246.9 73.9 246.9 78.3C246.9 82.8333 245.933 86.8667 244 90.4C242.067 93.9333 239.333 96.7 235.8 98.7C232.267 100.7 228.1 101.7 223.3 101.7H209.3V119H190.5ZM209.3 87.3H219C221.933 87.3 224.1 86.4667 225.5 84.8C226.967 83.1333 227.7 80.9667 227.7 78.3C227.7 75.4333 227.033 73.1667 225.7 71.5C224.367 69.8333 222.3 69 219.5 69H209.3V87.3ZM282.826 120C272.159 120 263.992 117.4 258.326 112.2C252.726 107 249.926 98.6 249.926 87C249.926 79 251.192 72.5667 253.726 67.7C256.259 62.7667 259.959 59.2 264.826 57C269.759 54.7333 275.759 53.6 282.826 53.6C289.892 53.6 295.859 54.7333 300.726 57C305.659 59.2 309.392 62.7667 311.926 67.7C314.459 72.5667 315.726 79 315.726 87C315.726 98.6 312.892 107 307.226 112.2C301.559 117.4 293.426 120 282.826 120ZM282.826 104C287.626 104 291.092 102.667 293.226 100C295.426 97.2667 296.526 92.9333 296.526 87C296.526 80.6667 295.426 76.2 293.226 73.6C291.092 70.9333 287.626 69.6 282.826 69.6C278.026 69.6 274.526 70.9333 272.326 73.6C270.192 76.2 269.126 80.6667 269.126 87C269.126 92.9333 270.192 97.2667 272.326 100C274.526 102.667 278.026 104 282.826 104ZM343.827 120C339.493 120 335.393 119.667 331.527 119C327.66 118.267 324.36 117.267 321.627 116V100.5C324.627 101.9 327.96 103.033 331.627 103.9C335.293 104.767 338.727 105.2 341.927 105.2C345.26 105.2 347.76 104.933 349.427 104.4C351.16 103.8 352.027 102.5 352.027 100.5C352.027 99.1 351.527 98 350.527 97.2C349.593 96.4 348.093 95.6667 346.027 95C344.027 94.3333 341.393 93.5 338.127 92.5C333.793 91.1 330.36 89.5667 327.827 87.9C325.293 86.2333 323.46 84.2 322.327 81.8C321.26 79.4 320.727 76.4667 320.727 73C320.727 66.6667 322.96 61.8667 327.427 58.6C331.96 55.2667 338.66 53.6 347.527 53.6C351.06 53.6 354.693 53.9 358.427 54.5C362.227 55.1 365.293 55.7667 367.627 56.5V72.1C364.493 70.8333 361.493 69.9333 358.627 69.4C355.76 68.8667 353.06 68.6 350.527 68.6C347.593 68.6 345.093 68.8333 343.027 69.3C340.96 69.7667 339.927 70.9667 339.927 72.9C339.927 74.5667 340.793 75.8 342.527 76.6C344.327 77.3333 347.493 78.3 352.027 79.5C357.293 80.9 361.293 82.6 364.027 84.6C366.827 86.6 368.727 88.9333 369.727 91.6C370.727 94.2 371.227 97.1667 371.227 100.5C371.227 106.367 368.96 111.1 364.427 114.7C359.893 118.233 353.027 120 343.827 120Z" fill="#DFE5E5"/>
<circle cx="121.359" cy="106.358" r="16" fill="#D9D9D9"/>
<path d="M78.2657 96.1046L50.4969 96.1046C50.4969 125.351 74.6996 149.059 104.555 149.059L104.555 121.858C90.0355 121.858 78.2657 110.328 78.2657 96.1046Z" fill="#DFE5E5"/>
<path d="M107.796 61.2825L107.796 28C72.0103 28 42.9999 57.0092 42.9999 92.7949L76.2848 92.7949C76.2848 75.3916 90.3926 61.2825 107.796 61.2825Z" fill="#DFE5E5"/>
<path d="M111.174 64.2979C125.397 64.2979 136.927 76.069 136.927 90.5885L164.129 90.5885C164.129 60.7326 140.42 36.5304 111.174 36.5304L111.174 64.2979Z" fill="#3ADFAA"/>
</g>
<defs>
<clipPath id="clip0_70_5">
<rect width="419" height="177" fill="white"/>
</clipPath>
</defs>
</svg>
