<!-- 
<svg width="426" height="58" viewBox="0 0 426 58" fill="none" xmlns="http://www.w3.org/2000/svg">
<g clip-path="url(#clip0_27_265)">
<path d="M318.74 55V17.004H338.328C341.436 17.004 343.992 17.6333 345.998 18.892C348.044 20.1113 349.558 21.783 350.541 23.907C351.525 26.031 352.016 28.391 352.016 30.987C352.016 33.6617 351.446 36.0413 350.305 38.126C349.165 40.2107 347.552 41.843 345.467 43.023C343.383 44.203 340.924 44.793 338.092 44.793H329.832V55H318.74ZM329.832 36.297H335.555C337.286 36.297 338.564 35.8053 339.39 34.822C340.256 33.8387 340.688 32.5603 340.688 30.987C340.688 29.2957 340.295 27.9583 339.508 26.975C338.722 25.9917 337.502 25.5 335.85 25.5H329.832V36.297ZM373.212 55.59C366.919 55.59 362.101 54.056 358.757 50.988C355.453 47.92 353.801 42.964 353.801 36.12C353.801 31.4 354.549 27.6043 356.043 24.733C357.538 21.8223 359.721 19.718 362.592 18.42C365.503 17.0827 369.043 16.414 373.212 16.414C377.382 16.414 380.902 17.0827 383.773 18.42C386.684 19.718 388.887 21.8223 390.381 24.733C391.876 27.6043 392.623 31.4 392.623 36.12C392.623 42.964 390.952 47.92 387.608 50.988C384.265 54.056 379.466 55.59 373.212 55.59ZM373.212 46.15C376.044 46.15 378.09 45.3633 379.348 43.79C380.646 42.1773 381.295 39.6207 381.295 36.12C381.295 32.3833 380.646 29.748 379.348 28.214C378.09 26.6407 376.044 25.854 373.212 25.854C370.38 25.854 368.315 26.6407 367.017 28.214C365.759 29.748 365.129 32.3833 365.129 36.12C365.129 39.6207 365.759 42.1773 367.017 43.79C368.315 45.3633 370.38 46.15 373.212 46.15ZM409.203 55.59C406.646 55.59 404.227 55.3933 401.946 55C399.665 54.5673 397.718 53.9773 396.105 53.23V44.085C397.875 44.911 399.842 45.5797 402.005 46.091C404.168 46.6023 406.194 46.858 408.082 46.858C410.049 46.858 411.524 46.7007 412.507 46.386C413.53 46.032 414.041 45.265 414.041 44.085C414.041 43.259 413.746 42.61 413.156 42.138C412.605 41.666 411.72 41.2333 410.501 40.84C409.321 40.4467 407.767 39.955 405.84 39.365C403.283 38.539 401.258 37.6343 399.763 36.651C398.268 35.6677 397.187 34.468 396.518 33.052C395.889 31.636 395.574 29.9053 395.574 27.86C395.574 24.1233 396.892 21.2913 399.527 19.364C402.202 17.3973 406.155 16.414 411.386 16.414C413.471 16.414 415.614 16.591 417.817 16.945C420.059 17.299 421.868 17.6923 423.245 18.125V27.329C421.396 26.5817 419.626 26.0507 417.935 25.736C416.244 25.4213 414.651 25.264 413.156 25.264C411.425 25.264 409.95 25.4017 408.731 25.677C407.512 25.9523 406.902 26.6603 406.902 27.801C406.902 28.7843 407.413 29.512 408.436 29.984C409.498 30.4167 411.366 30.987 414.041 31.695C417.148 32.521 419.508 33.524 421.121 34.704C422.773 35.884 423.894 37.2607 424.484 38.834C425.074 40.368 425.369 42.1183 425.369 44.085C425.369 47.5463 424.032 50.339 421.357 52.463C418.682 54.5477 414.631 55.59 409.203 55.59Z" fill="#3ADFAA"/>
<path d="M55.5883 55.7C51.7383 55.7 48.3938 54.9611 45.5549 53.4833C42.716 51.9667 40.5188 49.8472 38.9633 47.125C37.4466 44.3639 36.6883 41.1167 36.6883 37.3833C36.6883 33.65 37.4272 30.4417 38.9049 27.7583C40.4216 25.0361 42.5605 22.9556 45.3216 21.5167C48.1216 20.0389 51.4077 19.3 55.1799 19.3C58.9133 19.3 62.1216 20.0194 64.8049 21.4583C67.4883 22.8583 69.5299 24.8806 70.9299 27.525C72.3688 30.1694 73.0883 33.3389 73.0883 37.0333V40.475H47.0133C47.441 42.7306 48.3744 44.4417 49.8133 45.6083C51.2522 46.7361 53.1577 47.3 55.5299 47.3C57.4355 47.3 58.9133 47.0083 59.9633 46.425C61.0522 45.8028 61.8299 44.8306 62.2966 43.5083H73.0299C72.291 47.3194 70.3855 50.3139 67.3133 52.4917C64.241 54.6306 60.3327 55.7 55.5883 55.7ZM47.1883 33.475H62.8216C62.4716 31.5306 61.6549 30.0917 60.3716 29.1583C59.1272 28.1861 57.416 27.7 55.2383 27.7C53.0994 27.7 51.3494 28.1861 49.9883 29.1583C48.6272 30.1306 47.6938 31.5694 47.1883 33.475ZM81.12 55V30.5H75.87V20H86.6034V25.8333H89.0534C90.4534 23.8111 92.1645 22.2361 94.1867 21.1083C96.2478 19.9417 98.8728 19.3583 102.062 19.3583C107.039 19.3583 110.851 20.7 113.495 23.3833C116.178 26.0667 117.52 29.6639 117.52 34.175V55H106.787V36.275C106.787 33.8639 106.145 32.0361 104.862 30.7917C103.617 29.5472 101.77 28.925 99.32 28.925C96.87 28.925 95.0034 29.5472 93.72 30.7917C92.4756 32.0361 91.8534 33.8639 91.8534 36.275V55H81.12ZM136.236 55C133.514 55 131.394 54.3194 129.878 52.9583C128.4 51.5583 127.661 49.4389 127.661 46.6V28.4H121.828V20H127.778V9.5H138.278V20H145.978V28.4H138.394V46.6H146.794V55H136.236ZM151.865 55V20H162.598V55H151.865ZM157.231 17.025C155.637 17.025 154.276 16.4611 153.148 15.3333C152.02 14.2056 151.456 12.8444 151.456 11.25C151.456 9.65555 152.02 8.29444 153.148 7.16667C154.276 6.03889 155.637 5.475 157.231 5.475C158.826 5.475 160.187 6.03889 161.315 7.16667C162.442 8.29444 163.006 9.65555 163.006 11.25C163.006 12.8444 162.442 14.2056 161.315 15.3333C160.187 16.4611 158.826 17.025 157.231 17.025ZM172.722 55V30.5H167.472V20H178.205V25.8333H180.655C182.055 23.8111 183.766 22.2361 185.788 21.1083C187.849 19.9417 190.474 19.3583 193.663 19.3583C198.641 19.3583 202.452 20.7 205.097 23.3833C207.78 26.0667 209.122 29.6639 209.122 34.175V55H198.388V36.275C198.388 33.8639 197.747 32.0361 196.463 30.7917C195.219 29.5472 193.372 28.925 190.922 28.925C188.472 28.925 186.605 29.5472 185.322 30.7917C184.077 32.0361 183.455 33.8639 183.455 36.275V55H172.722ZM232.912 55.7C229.062 55.7 225.718 54.9611 222.879 53.4833C220.04 51.9667 217.843 49.8472 216.287 47.125C214.771 44.3639 214.012 41.1167 214.012 37.3833C214.012 33.65 214.751 30.4417 216.229 27.7583C217.746 25.0361 219.885 22.9556 222.646 21.5167C225.446 20.0389 228.732 19.3 232.504 19.3C236.237 19.3 239.446 20.0194 242.129 21.4583C244.812 22.8583 246.854 24.8806 248.254 27.525C249.693 30.1694 250.412 33.3389 250.412 37.0333V40.475H224.337C224.765 42.7306 225.699 44.4417 227.137 45.6083C228.576 46.7361 230.482 47.3 232.854 47.3C234.76 47.3 236.237 47.0083 237.287 46.425C238.376 45.8028 239.154 44.8306 239.621 43.5083H250.354C249.615 47.3194 247.71 50.3139 244.637 52.4917C241.565 54.6306 237.657 55.7 232.912 55.7ZM224.512 33.475H240.146C239.796 31.5306 238.979 30.0917 237.696 29.1583C236.451 28.1861 234.74 27.7 232.562 27.7C230.424 27.7 228.674 28.1861 227.312 29.1583C225.951 30.1306 225.018 31.5694 224.512 33.475ZM255.703 55V6H266.436V55H255.703ZM285.368 55.6417C281.168 55.6417 277.882 54.65 275.509 52.6667C273.176 50.6444 272.009 47.9611 272.009 44.6167C272.009 41.1556 273.234 38.4917 275.684 36.625C278.173 34.7194 281.712 33.7667 286.301 33.7667H295.693V32.4833C295.693 29.2944 293.671 27.7 289.626 27.7C286.048 27.7 283.871 28.9056 283.093 31.3167H272.476C273.293 27.35 275.14 24.3556 278.018 22.3333C280.896 20.3111 284.746 19.3 289.568 19.3C294.896 19.3 298.959 20.4861 301.759 22.8583C304.559 25.1917 305.959 28.6139 305.959 33.125V44.5H310.976V55H300.243V49.1667H297.793C296.587 51.2667 294.993 52.8806 293.009 54.0083C291.026 55.0972 288.479 55.6417 285.368 55.6417ZM287.001 47.5917C288.712 47.5917 290.209 47.3 291.493 46.7167C292.815 46.1333 293.846 45.3361 294.584 44.325C295.323 43.3139 295.693 42.1861 295.693 40.9417V40.7667H286.768C283.773 40.7667 282.276 41.875 282.276 44.0917C282.276 45.2194 282.684 46.0944 283.501 46.7167C284.357 47.3 285.523 47.5917 287.001 47.5917Z" fill="#151932"/>
<path d="M165.65 9.6709C165.65 4.72308 161.745 0.711594 156.929 0.710938L156.48 0.722657C151.872 0.962813 148.209 4.87689 148.208 9.66992L148.207 9.66992C148.207 14.4633 151.872 18.378 156.48 18.6182L156.929 18.6299C161.745 18.6292 165.648 14.6182 165.649 9.6709L165.65 9.6709Z" fill="#3ADFAA"/>
<path d="M15.5411 44.063L8.5564 51.2385C16.0661 58.9531 28.2414 58.953 35.751 51.2384L28.7664 44.0631C25.1143 47.8149 19.1932 47.8148 15.5411 44.063Z" fill="#151932"/>
<path d="M14.1097 29.9722L6.60689 22.2647C-1.46019 30.552 -1.46046 43.9882 6.60659 52.2754L14.1099 44.5673C10.1867 40.537 10.1864 34.0026 14.1097 29.9722Z" fill="#151932"/>
<path d="M15.541 30.4767C19.193 26.725 25.1142 26.7252 28.7663 30.477L35.751 23.3016C28.2414 15.587 16.0662 15.5873 8.55676 23.3018L15.541 30.4767Z" fill="#3ADFAA"/>
</g>
<defs>
<clipPath id="clip0_27_265">
<rect width="426" height="58" fill="white"/>
</clipPath>
</defs>
</svg> -->



<svg width="190" height="58" viewBox="0 0 190 58" fill="none" xmlns="http://www.w3.org/2000/svg">
<g clip-path="url(#clip0_50_12)">
<path d="M61.655 48V10.004H81.243C84.3503 10.004 86.907 10.6333 88.913 11.892C90.9583 13.1113 92.4727 14.783 93.456 16.907C94.4393 19.031 94.931 21.391 94.931 23.987C94.931 26.6617 94.3607 29.0413 93.22 31.126C92.0793 33.2107 90.4667 34.843 88.382 36.023C86.2973 37.203 83.839 37.793 81.007 37.793H72.747V48H61.655ZM72.747 29.297H78.47C80.2007 29.297 81.479 28.8053 82.305 27.822C83.1703 26.8387 83.603 25.5603 83.603 23.987C83.603 22.2957 83.2097 20.9583 82.423 19.975C81.6363 18.9917 80.417 18.5 78.765 18.5H72.747V29.297ZM116.127 48.59C109.834 48.59 105.016 47.056 101.672 43.988C98.3682 40.92 96.7162 35.964 96.7162 29.12C96.7162 24.4 97.4635 20.6043 98.9582 17.733C100.453 14.8223 102.636 12.718 105.507 11.42C108.418 10.0827 111.958 9.414 116.127 9.414C120.297 9.414 123.817 10.0827 126.688 11.42C129.599 12.718 131.802 14.8223 133.296 17.733C134.791 20.6043 135.538 24.4 135.538 29.12C135.538 35.964 133.867 40.92 130.523 43.988C127.18 47.056 122.381 48.59 116.127 48.59ZM116.127 39.15C118.959 39.15 121.005 38.3633 122.263 36.79C123.561 35.1773 124.21 32.6207 124.21 29.12C124.21 25.3833 123.561 22.748 122.263 21.214C121.005 19.6407 118.959 18.854 116.127 18.854C113.295 18.854 111.23 19.6407 109.932 21.214C108.674 22.748 108.044 25.3833 108.044 29.12C108.044 32.6207 108.674 35.1773 109.932 36.79C111.23 38.3633 113.295 39.15 116.127 39.15ZM152.118 48.59C149.561 48.59 147.142 48.3933 144.861 48C142.579 47.5673 140.632 46.9773 139.02 46.23V37.085C140.79 37.911 142.756 38.5797 144.92 39.091C147.083 39.6023 149.109 39.858 150.997 39.858C152.963 39.858 154.438 39.7007 155.422 39.386C156.444 39.032 156.956 38.265 156.956 37.085C156.956 36.259 156.661 35.61 156.071 35.138C155.52 34.666 154.635 34.2333 153.416 33.84C152.236 33.4467 150.682 32.955 148.755 32.365C146.198 31.539 144.172 30.6343 142.678 29.651C141.183 28.6677 140.101 27.468 139.433 26.052C138.803 24.636 138.489 22.9053 138.489 20.86C138.489 17.1233 139.806 14.2913 142.442 12.364C145.116 10.3973 149.069 9.414 154.301 9.414C156.385 9.414 158.529 9.591 160.732 9.945C162.974 10.299 164.783 10.6923 166.16 11.125V20.329C164.311 19.5817 162.541 19.0507 160.85 18.736C159.158 18.4213 157.565 18.264 156.071 18.264C154.34 18.264 152.865 18.4017 151.646 18.677C150.426 18.9523 149.817 19.6603 149.817 20.801C149.817 21.7843 150.328 22.512 151.351 22.984C152.413 23.4167 154.281 23.987 156.956 24.695C160.063 25.521 162.423 26.524 164.036 27.704C165.688 28.884 166.809 30.2607 167.399 31.834C167.989 33.368 168.284 35.1183 168.284 37.085C168.284 40.5463 166.946 43.339 164.272 45.463C161.597 47.5477 157.546 48.59 152.118 48.59Z" fill="#3ADFAA"/>
<circle cx="45.658" cy="28.5917" r="7.02624" transform="rotate(-45 45.658 28.5917)" fill="#151932"/>
<path d="M29.0929 38.789L20.4702 47.4118C29.5518 56.4934 44.429 56.3399 53.6997 47.0692L45.2531 38.6226C40.7445 43.1311 33.5094 43.2055 29.0929 38.789Z" fill="#151932"/>
<path d="M27.4497 18.8064L17.1148 8.4715C6.00262 19.5837 6.00224 37.5999 17.1144 48.712L27.45 38.3764C22.0459 32.9724 22.0455 24.2105 27.4497 18.8064Z" fill="#151932"/>
<path d="M29.435 18.6936C33.8515 14.2772 41.0868 14.3521 45.5954 18.8607L54.0422 10.4139C44.7714 1.14306 29.8941 0.98987 20.8127 10.0713L29.435 18.6936Z" fill="#3ADFAA"/>
</g>
<defs>
<clipPath id="clip0_50_12">
<rect width="190" height="58" fill="white"/>
</clipPath>
</defs>
</svg>

